<svg version="1.1" id="Layer_1" xmlns="http://www.w3.org/2000/svg" xmlns:xlink="http://www.w3.org/1999/xlink" x="0px" y="0px"
	 width="100%" viewBox="0 0 700 700" enable-background="new 0 0 700 700" xml:space="preserve">
<path fill="#FFFFFF" opacity="1.000000" stroke="none" 
	d="
M1.000000,184.000000 
	C1.000000,122.666664 1.000000,61.833332 1.000000,1.000000 
	C234.333328,1.000000 467.666656,1.000000 701.000000,1.000000 
	C701.000000,234.333328 701.000000,467.666656 701.000000,701.000000 
	C467.666656,701.000000 234.333328,701.000000 1.000000,701.000000 
	C1.000000,528.833313 1.000000,356.666656 1.000000,184.000000 
M130.701889,448.811676 
	C198.537827,526.336792 266.373749,603.861877 334.726868,681.978027 
	C334.726868,569.492554 334.726868,457.856903 334.726868,345.819092 
	C300.372742,345.819092 266.299530,345.819092 232.307434,345.819092 
	C232.307434,309.679626 232.307434,273.943146 232.307434,237.806274 
	C266.676727,237.806274 300.749786,237.806274 334.525940,237.806274 
	C334.525940,231.613113 334.511871,225.822617 334.528107,220.032227 
	C334.685699,163.886093 334.822357,107.739838 335.075775,51.594112 
	C335.090607,48.301861 334.306396,46.103390 331.475922,44.160831 
	C308.081543,28.105389 282.669128,16.873917 254.900146,10.754803 
	C225.401306,4.254501 195.749863,4.758530 166.790802,11.712634 
	C138.020569,18.621387 110.941795,30.297428 87.414703,49.302559 
	C64.470810,67.836578 45.365822,89.355911 30.882235,115.079239 
	C21.191765,132.289825 13.947908,150.537918 9.363230,169.576324 
	C4.769349,188.652939 1.908750,208.273590 3.886663,227.992844 
	C5.555232,244.628006 7.464395,261.380035 11.196453,277.637421 
	C18.603527,309.903717 34.330257,338.265564 55.884148,363.267487 
	C80.464211,391.779724 105.424843,419.963867 130.701889,448.811676 
M367.473053,486.499725 
	C367.473053,551.021667 367.473053,615.543579 367.473053,680.657837 
	C372.736969,674.630188 377.627960,669.019897 382.529236,663.418640 
	C464.806885,569.390137 547.029724,475.313568 629.419617,381.383545 
	C643.268616,365.594666 657.385254,349.909790 667.943909,331.788635 
	C684.965942,302.574982 694.671875,270.656067 697.009949,236.910599 
	C698.914856,209.417328 695.970581,182.351791 687.578613,155.806763 
	C675.279053,116.901680 653.746582,84.130760 623.334106,57.373745 
	C612.577881,47.910404 600.470581,39.598660 587.955383,32.591412 
	C552.100220,12.516127 513.219116,4.119149 472.281952,6.970126 
	C458.829254,7.907007 445.378601,10.869399 432.266541,14.230169 
	C412.917877,19.189440 395.324310,28.674644 377.695923,37.846138 
	C368.331421,42.718220 365.963165,47.515041 367.144501,58.163769 
	C367.309052,59.646881 367.459076,61.141895 367.459534,62.631443 
	C367.475555,115.794380 367.472931,168.957321 367.472931,222.120270 
	C367.472931,227.354248 367.472961,232.588211 367.472961,238.220123 
	C402.333160,238.220123 437.071686,238.220123 471.675171,238.220123 
	C471.675171,274.356628 471.675171,310.091858 471.675171,346.225372 
	C436.623566,346.225372 401.885376,346.225372 367.473083,346.225372 
	C367.473083,392.917358 367.473083,439.208527 367.473053,486.499725 
z"/>
<path fill="#060505" opacity="1.000000" stroke="none" 
	d="
M130.460999,448.551117 
	C105.424843,419.963867 80.464211,391.779724 55.884148,363.267487 
	C34.330257,338.265564 18.603527,309.903717 11.196453,277.637421 
	C7.464395,261.380035 5.555232,244.628006 3.886663,227.992844 
	C1.908750,208.273590 4.769349,188.652939 9.363230,169.576324 
	C13.947908,150.537918 21.191765,132.289825 30.882235,115.079239 
	C45.365822,89.355911 64.470810,67.836578 87.414703,49.302559 
	C110.941795,30.297428 138.020569,18.621387 166.790802,11.712634 
	C195.749863,4.758530 225.401306,4.254501 254.900146,10.754803 
	C282.669128,16.873917 308.081543,28.105389 331.475922,44.160831 
	C334.306396,46.103390 335.090607,48.301861 335.075775,51.594112 
	C334.822357,107.739838 334.685699,163.886093 334.528107,220.032227 
	C334.511871,225.822617 334.525940,231.613113 334.525940,237.806274 
	C300.749786,237.806274 266.676727,237.806274 232.307434,237.806274 
	C232.307434,273.943146 232.307434,309.679626 232.307434,345.819092 
	C266.299530,345.819092 300.372742,345.819092 334.726868,345.819092 
	C334.726868,457.856903 334.726868,569.492554 334.726868,681.978027 
	C266.373749,603.861877 198.537827,526.336792 130.460999,448.551117 
M29.582878,139.264328 
	C21.888910,159.108063 15.912997,179.476654 14.081820,200.702713 
	C11.707564,228.223877 14.208878,255.368042 22.375631,281.948212 
	C29.264812,304.370300 38.758755,325.409729 53.398792,343.856476 
	C61.975266,354.662994 70.748878,365.329620 79.806107,375.735107 
	C115.546143,416.795410 151.427231,457.732941 187.267838,498.705658 
	C226.506622,543.563049 265.754395,588.412598 305.009094,633.256042 
	C310.872864,639.954712 316.795929,646.601440 323.527222,654.217651 
	C323.527222,554.019165 323.527222,455.198303 323.527222,355.886078 
	C288.997528,355.886078 254.747757,355.886078 220.442627,355.886078 
	C220.442627,312.355835 220.442627,269.317902 220.442627,225.795441 
	C255.072769,225.795441 289.317413,225.795441 323.894867,225.795441 
	C323.894867,223.337036 323.894867,221.362274 323.894867,219.387512 
	C323.894867,167.221863 323.557281,115.052162 324.183899,62.894051 
	C324.307007,52.647038 320.901489,47.568779 312.144714,43.035484 
	C295.293304,34.311676 278.119049,26.388466 259.804840,21.754612 
	C242.581467,17.396772 224.860443,15.282151 206.934769,16.405703 
	C190.701141,17.423199 174.574936,19.020739 158.978546,24.029339 
	C139.036346,30.433546 119.722794,38.108337 102.424805,50.284866 
	C86.930977,61.191391 73.067749,73.947075 60.873627,88.282341 
	C48.037872,103.371895 38.239422,120.584190 29.582878,139.264328 
z"/>
<path fill="#060605" opacity="1.000000" stroke="none" 
	d="
M367.473083,485.999695 
	C367.473083,439.208527 367.473083,392.917358 367.473083,346.225372 
	C401.885376,346.225372 436.623566,346.225372 471.675171,346.225372 
	C471.675171,310.091858 471.675171,274.356628 471.675171,238.220123 
	C437.071686,238.220123 402.333160,238.220123 367.472961,238.220123 
	C367.472961,232.588211 367.472931,227.354248 367.472931,222.120270 
	C367.472931,168.957321 367.475555,115.794380 367.459534,62.631443 
	C367.459076,61.141895 367.309052,59.646881 367.144501,58.163769 
	C365.963165,47.515041 368.331421,42.718220 377.695923,37.846138 
	C395.324310,28.674644 412.917877,19.189440 432.266541,14.230169 
	C445.378601,10.869399 458.829254,7.907007 472.281952,6.970126 
	C513.219116,4.119149 552.100220,12.516127 587.955383,32.591412 
	C600.470581,39.598660 612.577881,47.910404 623.334106,57.373745 
	C653.746582,84.130760 675.279053,116.901680 687.578613,155.806763 
	C695.970581,182.351791 698.914856,209.417328 697.009949,236.910599 
	C694.671875,270.656067 684.965942,302.574982 667.943909,331.788635 
	C657.385254,349.909790 643.268616,365.594666 629.419617,381.383545 
	C547.029724,475.313568 464.806885,569.390137 382.529236,663.418640 
	C377.627960,669.019897 372.736969,674.630188 367.473053,680.657837 
	C367.473053,615.543579 367.473053,551.021667 367.473083,485.999695 
M378.137207,123.499977 
	C378.137207,157.594269 378.137207,191.688553 378.137207,226.062790 
	C380.630890,226.062790 382.448792,226.062790 384.266693,226.062790 
	C414.600006,226.062790 444.933350,226.062057 475.266663,226.063354 
	C481.986694,226.063629 482.007172,226.066910 482.008270,232.610397 
	C482.015015,272.277039 482.014374,311.943695 482.000641,351.610352 
	C482.000153,353.034973 481.837372,354.459564 481.729645,356.220795 
	C447.033417,356.220795 412.770233,356.220795 378.591980,356.220795 
	C378.591980,454.929321 378.591980,553.268799 378.591980,652.329712 
	C380.065338,651.054138 381.022491,650.404419 381.759338,649.562012 
	C428.659729,595.942444 475.527863,542.294617 522.431030,488.677399 
	C556.951965,449.214996 591.739136,409.982300 625.942261,370.246704 
	C638.051880,356.178284 650.275818,341.820343 659.779968,325.992767 
	C672.378418,305.012177 680.121216,281.816864 684.419312,257.386444 
	C689.363708,229.282364 688.930176,201.466843 682.516479,173.902405 
	C676.549988,148.260269 665.928040,124.499969 650.876465,102.650467 
	C641.046204,88.380501 629.273010,75.988777 616.611206,64.479782 
	C608.174011,56.810734 598.981750,49.533844 589.043701,44.042690 
	C565.960571,31.288383 541.650574,21.805721 515.102966,18.162088 
	C489.342041,14.626429 463.978333,15.889659 439.047363,22.231031 
	C419.115479,27.300846 400.611511,36.432026 382.676605,46.539265 
	C379.277527,48.454803 377.991913,50.941021 378.031647,55.001030 
	C378.251923,77.498863 378.137207,99.999977 378.137207,123.499977 
z"/>
<path fill="#EE171E" opacity="1.000000" stroke="none" 
	d="
M29.772156,138.935150 
	C38.239422,120.584190 48.037872,103.371895 60.873627,88.282341 
	C73.067749,73.947075 86.930977,61.191391 102.424805,50.284866 
	C119.722794,38.108337 139.036346,30.433546 158.978546,24.029339 
	C174.574936,19.020739 190.701141,17.423199 206.934769,16.405703 
	C224.860443,15.282151 242.581467,17.396772 259.804840,21.754612 
	C278.119049,26.388466 295.293304,34.311676 312.144714,43.035484 
	C320.901489,47.568779 324.307007,52.647038 324.183899,62.894051 
	C323.557281,115.052162 323.894867,167.221863 323.894867,219.387512 
	C323.894867,221.362274 323.894867,223.337036 323.894867,225.795441 
	C289.317413,225.795441 255.072769,225.795441 220.442627,225.795441 
	C220.442627,269.317902 220.442627,312.355835 220.442627,355.886078 
	C254.747757,355.886078 288.997528,355.886078 323.527222,355.886078 
	C323.527222,455.198303 323.527222,554.019165 323.527222,654.217651 
	C316.795929,646.601440 310.872864,639.954712 305.009094,633.256042 
	C265.754395,588.412598 226.506622,543.563049 187.267838,498.705658 
	C151.427231,457.732941 115.546143,416.795410 79.806107,375.735107 
	C70.748878,365.329620 61.975266,354.662994 53.398792,343.856476 
	C38.758755,325.409729 29.264812,304.370300 22.375631,281.948212 
	C14.208878,255.368042 11.707564,228.223877 14.081820,200.702713 
	C15.912997,179.476654 21.888910,159.108063 29.772156,138.935150 
z"/>
<path fill="#FFCB02" opacity="1.000000" stroke="none" 
	d="
M378.137207,122.999969 
	C378.137207,99.999977 378.251923,77.498863 378.031647,55.001030 
	C377.991913,50.941021 379.277527,48.454803 382.676605,46.539265 
	C400.611511,36.432026 419.115479,27.300846 439.047363,22.231031 
	C463.978333,15.889659 489.342041,14.626429 515.102966,18.162088 
	C541.650574,21.805721 565.960571,31.288383 589.043701,44.042690 
	C598.981750,49.533844 608.174011,56.810734 616.611206,64.479782 
	C629.273010,75.988777 641.046204,88.380501 650.876465,102.650467 
	C665.928040,124.499969 676.549988,148.260269 682.516479,173.902405 
	C688.930176,201.466843 689.363708,229.282364 684.419312,257.386444 
	C680.121216,281.816864 672.378418,305.012177 659.779968,325.992767 
	C650.275818,341.820343 638.051880,356.178284 625.942261,370.246704 
	C591.739136,409.982300 556.951965,449.214996 522.431030,488.677399 
	C475.527863,542.294617 428.659729,595.942444 381.759338,649.562012 
	C381.022491,650.404419 380.065338,651.054138 378.591980,652.329712 
	C378.591980,553.268799 378.591980,454.929321 378.591980,356.220795 
	C412.770233,356.220795 447.033417,356.220795 481.729645,356.220795 
	C481.837372,354.459564 482.000153,353.034973 482.000641,351.610352 
	C482.014374,311.943695 482.015015,272.277039 482.008270,232.610397 
	C482.007172,226.066910 481.986694,226.063629 475.266663,226.063354 
	C444.933350,226.062057 414.600006,226.062790 384.266693,226.062790 
	C382.448792,226.062790 380.630890,226.062790 378.137207,226.062790 
	C378.137207,191.688553 378.137207,157.594269 378.137207,122.999969 
z"/>
</svg>