<svg xmlns="http://www.w3.org/2000/svg" xmlns:xlink="http://www.w3.org/1999/xlink" version="1.1" width="256" height="256" viewBox="0 0 256 256" xml:space="preserve">

<defs>
</defs>
<g style="stroke: none; stroke-width: 0; stroke-dasharray: none; stroke-linecap: butt; stroke-linejoin: miter; stroke-miterlimit: 10; fill: none; fill-rule: nonzero; opacity: 1;" transform="translate(1.4065934065934016 1.4065934065934016) scale(2.81 2.81)" >
	<path d="M 29.452 78.819 L 1.601 50.968 c -2.134 -2.134 -2.134 -5.595 0 -7.729 l 8.691 -8.691 c 2.134 -2.134 5.595 -2.134 7.729 0 l 13.058 13.058 c 1.236 1.236 3.239 1.236 4.475 0 l 36.425 -36.425 c 2.134 -2.134 5.595 -2.134 7.729 0 l 8.691 8.691 c 2.134 2.134 2.134 5.595 0 7.729 L 37.181 78.819 C 35.046 80.953 31.586 80.953 29.452 78.819 z" style="stroke: none; stroke-width: 1; stroke-dasharray: none; stroke-linecap: butt; stroke-linejoin: miter; stroke-miterlimit: 10; fill: #257718; fill-rule: nonzero; opacity: 1;" transform=" matrix(1 0 0 1 0 0) " stroke-linecap="round" />
</g>
</svg>